<?xml version="1.0" encoding="UTF-8" standalone="no"?>
<!-- Created with Inkscape (http://www.inkscape.org/) -->

<svg
   width="600"
   height="600"
   viewBox="0 0 158.75 158.75"
   version="1.1"
   id="svg1"
   xml:space="preserve"
   sodipodi:docname="logo.svg"
   inkscape:version="1.3.2 (091e20e, 2023-11-25, custom)"
   inkscape:export-filename="logo-for-email-signature-v3.png"
   inkscape:export-xdpi="32"
   inkscape:export-ydpi="32"
   xmlns:inkscape="http://www.inkscape.org/namespaces/inkscape"
   xmlns:sodipodi="http://sodipodi.sourceforge.net/DTD/sodipodi-0.dtd"
   xmlns="http://www.w3.org/2000/svg"
   xmlns:svg="http://www.w3.org/2000/svg"><sodipodi:namedview
     id="namedview1"
     pagecolor="#ffffff"
     bordercolor="#000000"
     borderopacity="0.25"
     inkscape:showpageshadow="2"
     inkscape:pageopacity="0.0"
     inkscape:pagecheckerboard="0"
     inkscape:deskcolor="#d1d1d1"
     inkscape:zoom="1.071856"
     inkscape:cx="105.89109"
     inkscape:cy="563.04203"
     inkscape:window-width="2592"
     inkscape:window-height="1514"
     inkscape:window-x="-11"
     inkscape:window-y="-11"
     inkscape:window-maximized="1"
     inkscape:current-layer="svg1"
     inkscape:export-bgcolor="#ffffffff" /><defs
     id="defs1"><clipPath
       id="p.1"><path
         d="M 0,0 H 1688 V 712 H 0 Z"
         clip-rule="evenodd"
         id="path11" /></clipPath></defs><path
     fill="#ffffff"
     d="m 1.1556137e-7,37.560487 v 0 C 1.1556137e-7,31.063622 5.7325481,25.796874 12.804011,25.796874 H 145.94597 c 3.39585,0 6.6526,1.239376 9.05383,3.445482 2.40119,2.206108 3.7502,5.198229 3.7502,8.318132 v 83.629032 c 0,6.49688 -5.73256,11.76361 -12.80403,11.76361 H 12.804011 C 5.7325481,132.95313 1.1556137e-7,127.6864 1.1556137e-7,121.18952 Z"
     fill-rule="evenodd"
     id="background"
     style="stroke:none;stroke-width:0.268087;stroke-linecap:square;stroke-miterlimit:10" /><path
     d="m 11.897731,110.22876 c 0,0 0,-72.571098 0,-72.571098 0,0 47.585905,0 47.585905,0 0,0 0,13.892182 0,13.892182 0,0 -31.205572,0 -31.205572,0 0,0 0,14.928911 0,14.928911 0,0 28.510074,0 28.510074,0 0,0 0,13.892182 0,13.892182 0,0 -28.510074,0 -28.510074,0 0,0 0,15.861968 0,15.861968 0,0 32.345975,0 32.345975,0 0,0 0,13.995855 0,13.995855 z M 146.59382,73.943211 c 0,22.082348 -16.06932,37.736969 -38.7737,37.736969 -22.704389,0 -38.670031,-15.654621 -38.670031,-37.736969 0,-22.082348 15.965642,-37.736971 38.670031,-37.736971 22.70438,0 38.7737,15.654623 38.7737,37.736971 z m -60.648705,0 c 0,13.062798 9.019551,22.082348 21.875005,22.082348 12.95912,0 21.875,-9.01955 21.875,-22.082348 0,-13.062798 -8.91588,-22.082348 -21.875,-22.082348 -12.855454,0 -21.875005,9.01955 -21.875005,22.082348 z m 22.289695,15.447276 c -1.65877,-3.732227 -0.31102,-6.94609 2.6955,-8.397512 3.00651,-1.555095 6.84241,-0.829384 8.70853,2.695498 1.34775,2.695498 2.59182,5.494668 3.93957,8.293839 1.24408,2.695498 2.59183,5.494669 3.8359,7.879148 1.14041,2.38448 2.38448,4.56161 3.42121,6.22038 0,0 0,0 0,0 1.24408,1.76244 3.11019,3.31754 3.11019,3.31754 1.24408,0 3.93958,0 5.391,0 3.52488,0 6.42772,2.90284 6.42772,6.42772 0,3.52488 -2.90284,6.32405 -6.42772,6.32405 -1.45142,0 -4.66529,0 -6.01304,0 -2.17713,0 -4.87263,-1.1404 -4.87263,-1.1404 -3.52488,-1.45142 -6.42772,-5.18365 -8.19016,-7.87915 0,0 0,0 0,0 0,0 0,0 0,0 -1.5551,-2.2808 -2.90285,-4.76895 -4.2506,-7.46445 0,0 0,0 0,0 -1.34775,-2.6955 -2.69549,-5.49467 -4.04324,-8.293842 -1.24408,-2.799171 -2.48815,-5.390996 -3.73223,-7.982821 z"
     id="text2-0"
     style="font-size:103.673px;font-family:Garet-Q;-inkscape-font-specification:Garet-Q;letter-spacing:-1.32292px;fill:#0b8043;stroke-width:1.29589"
     aria-label="EQ" /><path
     style="font-weight:bold;font-size:7.83788px;font-family:Garet;-inkscape-font-specification:'Garet Bold';letter-spacing:0px;fill:#0b8043;stroke-width:0.0979719"
     d="m 144.52756,105.9547 h 1.25406 v -4.31868 h 1.73217 v -1.16784 h -4.7184 v 1.16784 h 1.73217 z m 3.89542,0 h 1.23839 v -3.29975 l 1.33244,1.94379 h 0.86216 l 1.33244,-1.94379 v 3.29975 h 1.23839 v -5.48652 h -1.05028 l -1.95163,2.84515 -1.95163,-2.84515 h -1.05028 z"
     id="text2-0-6"
     aria-label="TM" /><path
     style="color:#000000;fill:#0033a0;fill-opacity:0.99117;stroke-linecap:round;stroke:#ffffff;stroke-opacity:0.99116999;stroke-width:0.26458333;stroke-dasharray:none;vector-effect:non-scaling-stroke;-inkscape-stroke:hairline"
     d="m 40.359375,69.824219 c -2.35375,0.001 -4.505238,1.022384 -6.255859,2.453125 -1.747605,1.428034 -3.213167,3.259166 -4.632813,5.402343 -1.418627,2.14147 -2.765388,4.589319 -4.095703,7.212891 -1.329672,2.622497 -2.637193,5.411196 -3.929688,8.169922 -1.292083,2.758064 -2.569535,5.48484 -3.824218,7.95898 -1.254498,2.47395 -2.492946,4.70248 -3.658203,6.46094 -1.165461,1.75876 -2.285201,3.04977 -3.119141,3.73047 -0.835741,0.68212 -1.2710195,0.75569 -1.5,0.75586 a 3.7625,3.7625 0 0 0 -3.7597656,3.76563 3.7625,3.7625 0 0 0 3.765625,3.75976 c 2.3555846,-0.002 4.5030066,-1.02371 6.2519536,-2.45117 1.750541,-1.42888 3.215734,-3.26288 4.634765,-5.4043 1.419224,-2.14171 2.765718,-4.59203 4.095703,-7.21484 1.3298,-2.62227 2.635333,-5.409226 3.927735,-8.167971 1.292193,-2.758082 2.571354,-5.48412 3.826171,-7.958984 1.254365,-2.473787 2.492146,-4.700731 3.658204,-6.460938 1.164835,-1.758502 2.284011,-3.048409 3.121093,-3.732421 0.833866,-0.681499 1.26711,-0.755758 1.498047,-0.75586 0.22449,-9.9e-5 0.658113,0.07321 1.494141,0.75586 v 0.002 c 0.834248,0.681137 1.955599,1.971661 3.121094,3.730468 1.165311,1.758531 2.401757,3.987173 3.65625,6.460938 1.254727,2.474132 2.534056,5.200852 3.826171,7.958984 1.292507,2.758759 2.597945,5.545441 3.927735,8.167971 1.330122,2.62307 2.677015,5.07111 4.095703,7.21289 v 0.002 h 0.002 c 1.419004,2.14138 2.882709,3.97401 4.630859,5.40235 1.750195,1.42986 3.902108,2.45139 6.25586,2.45312 h 0.002 c 2.359266,0 4.507728,-1.02427 6.255859,-2.45117 1.750801,-1.42898 3.215786,-3.26296 4.634766,-5.4043 1.41915,-2.14143 2.766019,-4.59076 4.095703,-7.21289 v -0.002 c 1.329708,-2.62197 2.635547,-5.409896 3.927734,-8.167971 1.292064,-2.758016 2.571295,-5.484192 3.826172,-7.958984 1.254241,-2.473724 2.492147,-4.700732 3.658203,-6.460938 1.16479,-1.75843 2.283963,-3.048312 3.121093,-3.732421 0.8336,-0.681279 1.2671,-0.755758 1.49805,-0.75586 0.22468,-9.9e-5 0.65721,0.07447 1.49414,0.757813 0.83427,0.68109 1.95548,1.971595 3.12109,3.730468 1.16537,1.75847 2.40361,3.987133 3.65821,6.460938 h -0.002 c 1.25476,2.474199 2.53396,5.20085 3.82617,7.958984 1.29254,2.758824 2.59991,5.545491 3.92969,8.167971 1.33023,2.62309 2.67674,5.07196 4.09375,7.21289 v 0.002 c 1.4194,2.14184 2.88432,3.97396 4.63281,5.40235 h 0.002 c 1.75022,1.42976 3.90013,2.45139 6.2539,2.45312 a 3.7625,3.7625 0 0 0 3.76563,-3.75976 3.7625,3.7625 0 0 0 -3.75977,-3.76563 c -0.23096,-1.7e-4 -0.66552,-0.0742 -1.5,-0.75586 -0.83568,-0.68269 -1.95459,-1.97365 -3.11914,-3.73047 l -0.002,-0.002 c -1.16528,-1.76086 -2.40225,-3.98621 -3.65625,-6.45899 -1.25494,-2.474874 -2.53403,-5.200996 -3.82617,-7.95898 -1.29247,-2.758674 -2.59782,-5.54752 -3.92774,-8.169922 -1.33006,-2.622608 -2.67832,-5.071204 -4.09765,-7.212891 -1.41905,-2.141288 -2.88237,-3.975239 -4.63282,-5.404296 -1.74774,-1.427004 -3.8978,-2.452213 -6.25781,-2.451172 -2.35375,0.001 -4.504965,1.022164 -6.255858,2.453125 -1.747347,1.427936 -3.213116,3.259093 -4.632812,5.402343 -1.418627,2.141471 -2.765454,4.589257 -4.095703,7.212891 -1.32981,2.622569 -2.635308,5.41113 -3.927735,8.169922 -1.292245,2.758199 -2.571463,5.484981 -3.826171,7.95898 -1.254535,2.47402 -2.492955,4.70068 -3.658204,6.45899 v 0.002 c -1.165507,1.75884 -2.285255,3.04987 -3.11914,3.73047 -0.835049,0.68161 -1.27057,0.75367 -1.496094,0.75391 -0.231004,-4e-4 -0.665059,-0.0734 -1.498047,-0.75391 -0.83607,-0.68299 -1.955892,-1.9721 -3.121094,-3.73047 -1.165997,-1.76029 -2.40188,-3.98725 -3.65625,-6.46094 C 61.846669,98.54666 60.567565,95.82055 59.275391,93.0625 57.983021,90.303824 56.677612,87.515047 55.347656,84.892578 54.017663,82.26993 52.669174,79.821313 51.25,77.679687 49.831007,75.538333 48.367423,73.704402 46.617187,72.275391 44.868734,70.8477 42.719369,69.823178 40.359375,69.824219 Z"
     id="wave" /></svg>
