<?xml version="1.0" encoding="UTF-8" standalone="no"?>
<!-- Created with Inkscape (http://www.inkscape.org/) -->

<svg
   width="600"
   height="600"
   viewBox="0 0 158.75 158.75"
   version="1.1"
   id="svg1"
   xml:space="preserve"
   inkscape:version="1.4.2 (f4327f4, 2025-05-13)"
   sodipodi:docname="logo.svg"
   inkscape:export-filename="logo.png"
   inkscape:export-xdpi="96"
   inkscape:export-ydpi="96"
   xmlns:inkscape="http://www.inkscape.org/namespaces/inkscape"
   xmlns:sodipodi="http://sodipodi.sourceforge.net/DTD/sodipodi-0.dtd"
   xmlns="http://www.w3.org/2000/svg"
   xmlns:svg="http://www.w3.org/2000/svg"><sodipodi:namedview
     id="namedview1"
     pagecolor="#808080"
     bordercolor="#000000"
     borderopacity="0.25"
     inkscape:showpageshadow="2"
     inkscape:pageopacity="0.0"
     inkscape:pagecheckerboard="0"
     inkscape:deskcolor="#d1d1d1"
     inkscape:document-units="mm"
     inkscape:zoom="2.8284271"
     inkscape:cx="335.69895"
     inkscape:cy="237.4111"
     inkscape:window-width="3840"
     inkscape:window-height="2054"
     inkscape:window-x="3445"
     inkscape:window-y="-11"
     inkscape:window-maximized="1"
     inkscape:current-layer="layer1"
     showgrid="false"
     showguides="false"
     inkscape:lockguides="true"><inkscape:grid
       id="grid17"
       units="px"
       originx="0"
       originy="0"
       spacingx="0.26458333"
       spacingy="0.26458333"
       empcolor="#0099e5"
       empopacity="0.30196078"
       color="#0099e5"
       opacity="0.14901961"
       empspacing="5"
       dotted="false"
       gridanglex="30"
       gridanglez="30"
       visible="false" /></sodipodi:namedview><defs
     id="defs1"><clipPath
       id="p.1"><path
         d="M 0,0 H 1688 V 712 H 0 Z"
         clip-rule="evenodd"
         id="path11" /></clipPath><filter
       style="color-interpolation-filters:sRGB;"
       inkscape:label="Feather"
       id="filter15"
       x="-0.04483755"
       y="-0.13198187"
       width="1.0896751"
       height="1.2639637"><feGaussianBlur
         stdDeviation="0.75"
         result="blur"
         id="feGaussianBlur13" /><feComposite
         in="SourceGraphic"
         in2="blur"
         operator="atop"
         result="composite1"
         id="feComposite13" /><feComposite
         in2="composite1"
         operator="in"
         result="composite2"
         id="feComposite14" /><feComposite
         in2="composite2"
         operator="in"
         result="composite3"
         id="feComposite15" /></filter><filter
       style="color-interpolation-filters:sRGB;"
       inkscape:label="Feather"
       id="filter22"
       x="-0.049673957"
       y="-0.14621808"
       width="1.0993479"
       height="1.2924362"><feGaussianBlur
         stdDeviation="1"
         result="blur"
         id="feGaussianBlur20" /><feComposite
         in="SourceGraphic"
         in2="blur"
         operator="atop"
         result="composite1"
         id="feComposite20" /><feComposite
         in2="composite1"
         operator="in"
         result="composite2"
         id="feComposite21" /><feComposite
         in2="composite2"
         operator="in"
         result="composite3"
         id="feComposite22" /></filter><filter
       style="color-interpolation-filters:sRGB;"
       inkscape:label="Feather"
       id="filter3"
       x="-0.0018239288"
       y="-0.0048316984"
       width="1.0036479"
       height="1.0096634"><feGaussianBlur
         stdDeviation="0.1"
         result="blur"
         id="feGaussianBlur1" /><feComposite
         in="SourceGraphic"
         in2="blur"
         operator="atop"
         result="composite1"
         id="feComposite1" /><feComposite
         in2="composite1"
         operator="in"
         result="composite2"
         id="feComposite2" /><feComposite
         in2="composite2"
         operator="in"
         result="composite3"
         id="feComposite3" /></filter><filter
       style="color-interpolation-filters:sRGB;"
       inkscape:label="Feather"
       id="filter6"
       x="-0.013679466"
       y="-0.036237738"
       width="1.0273589"
       height="1.0724755"><feGaussianBlur
         stdDeviation="0.75"
         result="blur"
         id="feGaussianBlur3" /><feComposite
         in="SourceGraphic"
         in2="blur"
         operator="atop"
         result="composite1"
         id="feComposite4" /><feComposite
         in2="composite1"
         operator="in"
         result="composite2"
         id="feComposite5" /><feComposite
         in2="composite2"
         operator="in"
         result="composite3"
         id="feComposite6" /></filter><filter
       style="color-interpolation-filters:sRGB;"
       inkscape:label="Feather"
       id="filter9"
       x="-0.021887146"
       y="-0.057980383"
       width="1.0437743"
       height="1.1159608"><feGaussianBlur
         stdDeviation="1.2"
         result="blur"
         id="feGaussianBlur6" /><feComposite
         in="SourceGraphic"
         in2="blur"
         operator="atop"
         result="composite1"
         id="feComposite7" /><feComposite
         in2="composite1"
         operator="in"
         result="composite2"
         id="feComposite8" /><feComposite
         in2="composite2"
         operator="in"
         result="composite3"
         id="feComposite9" /></filter></defs><g
     inkscape:label="Layer 1"
     inkscape:groupmode="layer"
     id="layer1"
     style="opacity:1"><path
       fill="#ffffff"
       d="m 1.1556137e-7,37.560487 v 0 C 1.1556137e-7,31.063622 5.7325481,25.796874 12.804011,25.796874 H 145.94597 c 3.39585,0 6.6526,1.239376 9.05383,3.445482 2.40119,2.206108 3.7502,5.198229 3.7502,8.318132 v 83.629032 c 0,6.49688 -5.73256,11.76361 -12.80403,11.76361 H 12.804011 C 5.7325481,132.95313 1.1556137e-7,127.6864 1.1556137e-7,121.18952 Z"
       fill-rule="evenodd"
       id="background"
       style="stroke:none;stroke-width:0.268087;stroke-linecap:square;stroke-miterlimit:10"
       inkscape:label="bg" /><path
       d="m 11.897731,110.22876 c 0,0 0,-72.571098 0,-72.571098 0,0 47.585905,0 47.585905,0 0,0 0,13.892182 0,13.892182 0,0 -31.205572,0 -31.205572,0 0,0 0,14.928911 0,14.928911 0,0 28.510074,0 28.510074,0 0,0 0,13.892182 0,13.892182 0,0 -28.510074,0 -28.510074,0 0,0 0,15.861968 0,15.861968 0,0 32.345975,0 32.345975,0 0,0 0,13.995855 0,13.995855 z M 146.59382,73.943211 c 0,22.082348 -16.06932,37.736969 -38.7737,37.736969 -22.704389,0 -38.670031,-15.654621 -38.670031,-37.736969 0,-22.082348 15.965642,-37.736971 38.670031,-37.736971 22.70438,0 38.7737,15.654623 38.7737,37.736971 z m -60.648705,0 c 0,13.062798 9.019551,22.082348 21.875005,22.082348 12.95912,0 21.875,-9.01955 21.875,-22.082348 0,-13.062798 -8.91588,-22.082348 -21.875,-22.082348 -12.855454,0 -21.875005,9.01955 -21.875005,22.082348 z m 22.289695,15.447276 c -1.65877,-3.732227 -0.31102,-6.94609 2.6955,-8.397512 3.00651,-1.555095 6.84241,-0.829384 8.70853,2.695498 1.34775,2.695498 2.59182,5.494668 3.93957,8.293839 1.24408,2.695498 2.59183,5.494669 3.8359,7.879148 1.14041,2.38448 2.38448,4.56161 3.42121,6.22038 0,0 0,0 0,0 1.24408,1.76244 3.11019,3.31754 3.11019,3.31754 1.24408,0 3.93958,0 5.391,0 3.52488,0 6.42772,2.90284 6.42772,6.42772 0,3.52488 -2.90284,6.32405 -6.42772,6.32405 -1.45142,0 -4.66529,0 -6.01304,0 -2.17713,0 -4.87263,-1.1404 -4.87263,-1.1404 -3.52488,-1.45142 -6.42772,-5.18365 -8.19016,-7.87915 0,0 0,0 0,0 0,0 0,0 0,0 -1.5551,-2.2808 -2.90285,-4.76895 -4.2506,-7.46445 0,0 0,0 0,0 -1.34775,-2.6955 -2.69549,-5.49467 -4.04324,-8.293842 -1.24408,-2.799171 -2.48815,-5.390996 -3.73223,-7.982821 z"
       id="text2-0"
       style="font-size:103.673px;font-family:Garet-Q;-inkscape-font-specification:Garet-Q;letter-spacing:-1.32292px;fill:#0b8043;stroke-width:1.29589"
       inkscape:label="EQ"
       aria-label="EQ" /><path
       style="font-weight:bold;font-size:7.83788px;font-family:Garet;-inkscape-font-specification:'Garet Bold';letter-spacing:0px;fill:#0b8043;stroke-width:0.0979719"
       d="m 144.52756,105.9547 h 1.25406 v -4.31868 h 1.73217 v -1.16784 h -4.7184 v 1.16784 h 1.73217 z m 3.89542,0 h 1.23839 v -3.29975 l 1.33244,1.94379 h 0.86216 l 1.33244,-1.94379 v 3.29975 h 1.23839 v -5.48652 h -1.05028 l -1.95163,2.84515 -1.95163,-2.84515 h -1.05028 z"
       id="text2-0-6"
       inkscape:label="TM"
       aria-label="TM" /><path
       style="baseline-shift:baseline;display:inline;overflow:visible;vector-effect:none;fill:#a6d6ff;stroke-linecap:round;enable-background:accumulate;stop-color:#000000;stop-opacity:1;opacity:1;filter:url(#filter3)"
       d="m 40.359375,69.822266 c -2.353753,0.001 -4.507191,1.022385 -6.257813,2.453125 -1.747139,1.427908 -3.211494,3.261534 -4.630859,5.404296 -1.418626,2.141469 -2.767339,4.589317 -4.097656,7.212891 -1.329671,2.622503 -2.635238,5.411189 -3.927735,8.169922 -1.292085,2.758062 -2.569534,5.484837 -3.824218,7.95898 -1.254499,2.47395 -2.492945,4.70053 -3.658203,6.45899 -1.165462,1.75876 -2.2852,3.05172 -3.119141,3.73242 -0.835741,0.68212 -1.2729718,0.75569 -1.5019531,0.75586 a 3.7625,3.7625 0 0 0 -3.7597657,3.76563 3.7625,3.7625 0 0 0 3.7656251,3.75976 c 2.3555867,-0.002 4.5049577,-1.02566 6.2539067,-2.45312 1.750543,-1.42888 3.215733,-3.26093 4.634765,-5.40235 1.419225,-2.14172 2.765716,-4.59203 4.095703,-7.21484 1.329802,-2.62227 2.635332,-5.411186 3.927735,-8.169924 1.292193,-2.758086 2.57135,-5.484107 3.826171,-7.958984 1.254365,-2.473786 2.492142,-4.698773 3.658204,-6.458985 1.164834,-1.758507 2.282054,-3.048406 3.11914,-3.732421 h 0.002 c 0.833873,-0.681503 1.265147,-0.755758 1.496094,-0.75586 0.224485,-9.9e-5 0.660071,0.07321 1.496094,0.75586 0.834254,0.681143 1.95561,1.973616 3.121094,3.732421 1.165314,1.758541 2.401762,3.98523 3.65625,6.458985 1.254733,2.474136 2.534046,5.20084 3.826171,7.958984 1.292505,2.75875 2.597932,5.547384 3.927735,8.169924 1.330121,2.62308 2.677024,5.07111 4.095703,7.21289 v 0.002 c 1.419289,2.14182 2.884207,3.97389 4.632812,5.40235 1.750195,1.42985 3.902106,2.45139 6.25586,2.45312 h 0.002 c 2.359269,0 4.507729,-1.02623 6.255859,-2.45312 1.750797,-1.42898 3.215783,-3.26101 4.634766,-5.40235 1.41945,-2.14188 2.765756,-4.5921 4.095703,-7.21484 1.329971,-2.62241 2.635297,-5.411316 3.927734,-8.169924 1.29207,-2.758024 2.571289,-5.484184 3.826172,-7.958984 1.254231,-2.473715 2.492142,-4.698767 3.658203,-6.458985 1.16478,-1.758427 2.283953,-3.048304 3.121093,-3.732421 0.83361,-0.681285 1.2671,-0.755758 1.49805,-0.75586 0.22468,-9.9e-5 0.65721,0.07252 1.49414,0.75586 0.83427,0.681092 1.95548,1.973543 3.12109,3.732421 1.16537,1.758472 2.40165,3.987137 3.65625,6.460938 1.25452,2.47382 2.53422,5.199443 3.82617,7.957031 1.29254,2.758818 2.59796,5.547444 3.92774,8.169924 1.33023,2.62309 2.67869,5.07196 4.0957,7.21289 v 0.002 c 1.41941,2.14184 2.88432,3.97396 4.63281,5.40235 1.75022,1.42976 3.90209,2.45139 6.25586,2.45312 a 3.7625,3.7625 0 0 0 3.76368,-3.75976 3.7625,3.7625 0 0 0 -3.75782,-3.76563 c -0.23096,-1.7e-4 -0.66552,-0.0742 -1.5,-0.75586 -0.8359,-0.68287 -1.95622,-1.97296 -3.12109,-3.73047 v -0.002 c -1.16542,-1.76096 -2.40209,-3.98589 -3.65625,-6.45899 -1.25494,-2.474876 -2.53403,-5.200998 -3.82617,-7.95898 -1.29247,-2.758682 -2.59977,-5.547515 -3.92969,-8.169922 -1.33006,-2.622598 -2.67637,-5.071202 -4.0957,-7.212891 -1.41905,-2.141301 -2.88237,-3.975239 -4.63282,-5.404296 -1.74774,-1.427005 -3.89779,-2.454166 -6.25781,-2.453125 -2.35375,0.001 -4.504965,1.022168 -6.255858,2.453125 -1.747336,1.42793 -3.213112,3.261024 -4.632812,5.404296 -1.418618,2.141463 -2.765454,4.589246 -4.095703,7.212891 -1.329817,2.62258 -2.637257,5.411126 -3.929688,8.169922 -1.292242,2.758192 -2.569509,5.484974 -3.824218,7.95898 -1.254533,2.47402 -2.492954,4.70069 -3.658204,6.45899 -1.165517,1.75884 -2.285257,3.05182 -3.11914,3.73242 -0.835501,0.68197 -1.270659,0.75571 -1.496094,0.75586 -0.230726,-1.7e-4 -0.663741,-0.0743 -1.498047,-0.75586 -0.835817,-0.68279 -1.95629,-1.97293 -3.121094,-3.73047 v -0.002 c -1.165766,-1.76012 -2.404131,-3.98588 -3.658203,-6.45899 C 61.844712,98.546666 60.567567,95.82055 59.275391,93.0625 57.983016,90.303825 56.67567,87.515062 55.345703,84.892578 54.01571,82.269933 52.669166,79.821307 51.25,77.679687 49.831004,75.538313 48.367414,73.704397 46.617187,72.275391 44.86873,70.847695 42.71937,69.821225 40.359375,69.822266 Z"
       id="wave-3" /><path
       style="baseline-shift:baseline;display:inline;overflow:visible;vector-effect:none;fill:#2697ff;stroke-linecap:round;enable-background:accumulate;stop-color:#000000;stop-opacity:1;opacity:1;filter:url(#filter6)"
       d="m 40.359375,69.822266 c -2.353753,0.001 -4.507191,1.022385 -6.257813,2.453125 -1.747139,1.427908 -3.211494,3.261534 -4.630859,5.404296 -1.418626,2.141469 -2.767339,4.589317 -4.097656,7.212891 -1.329671,2.622503 -2.635238,5.411189 -3.927735,8.169922 -1.292085,2.758062 -2.569534,5.484837 -3.824218,7.95898 -1.254499,2.47395 -2.492945,4.70053 -3.658203,6.45899 -1.165462,1.75876 -2.2852,3.05172 -3.119141,3.73242 -0.835741,0.68212 -1.2729718,0.75569 -1.5019531,0.75586 a 3.7625,3.7625 0 0 0 -3.7597657,3.76563 3.7625,3.7625 0 0 0 3.7656251,3.75976 c 2.3555867,-0.002 4.5049577,-1.02566 6.2539067,-2.45312 1.750543,-1.42888 3.215733,-3.26093 4.634765,-5.40235 1.419225,-2.14172 2.765716,-4.59203 4.095703,-7.21484 1.329802,-2.62227 2.635332,-5.411186 3.927735,-8.169924 1.292193,-2.758086 2.57135,-5.484107 3.826171,-7.958984 1.254365,-2.473786 2.492142,-4.698773 3.658204,-6.458985 1.164834,-1.758507 2.282054,-3.048406 3.11914,-3.732421 h 0.002 c 0.833873,-0.681503 1.265147,-0.755758 1.496094,-0.75586 0.224485,-9.9e-5 0.660071,0.07321 1.496094,0.75586 0.834254,0.681143 1.95561,1.973616 3.121094,3.732421 1.165314,1.758541 2.401762,3.98523 3.65625,6.458985 1.254733,2.474136 2.534046,5.20084 3.826171,7.958984 1.292505,2.75875 2.597932,5.547384 3.927735,8.169924 1.330121,2.62308 2.677024,5.07111 4.095703,7.21289 v 0.002 c 1.419289,2.14182 2.884207,3.97389 4.632812,5.40235 1.750195,1.42985 3.902106,2.45139 6.25586,2.45312 h 0.002 c 2.359269,0 4.507728,-1.02623 6.255859,-2.45312 1.750797,-1.42898 3.215783,-3.26101 4.634766,-5.40235 1.41945,-2.14188 2.765756,-4.5921 4.095703,-7.21484 1.329971,-2.62241 2.635297,-5.411316 3.927734,-8.169924 1.29207,-2.758024 2.571289,-5.484184 3.826172,-7.958984 1.254231,-2.473715 2.492142,-4.698767 3.658203,-6.458985 1.16478,-1.758427 2.283953,-3.048304 3.121093,-3.732421 0.83361,-0.681287 1.2671,-0.755758 1.49805,-0.75586 0.22468,-9.9e-5 0.65721,0.07252 1.49414,0.75586 0.83427,0.681092 1.95548,1.973543 3.12109,3.732421 1.16537,1.758472 2.40165,3.987137 3.65625,6.460938 1.25452,2.47382 2.53422,5.199443 3.82617,7.957031 1.29254,2.758818 2.59796,5.547444 3.92774,8.169924 1.33023,2.62309 2.67869,5.07196 4.0957,7.21289 v 0.002 c 1.41941,2.14184 2.88432,3.97396 4.63281,5.40235 1.75022,1.42976 3.90209,2.45139 6.25586,2.45312 a 3.7625,3.7625 0 0 0 3.76368,-3.75976 3.7625,3.7625 0 0 0 -3.75782,-3.76563 c -0.23096,-1.7e-4 -0.66552,-0.0742 -1.5,-0.75586 -0.8359,-0.68287 -1.95622,-1.97296 -3.12109,-3.73047 v -0.002 c -1.16542,-1.76096 -2.40209,-3.98589 -3.65625,-6.45899 -1.25494,-2.474876 -2.53403,-5.200998 -3.82617,-7.95898 -1.29247,-2.758682 -2.59977,-5.547515 -3.92969,-8.169922 -1.33006,-2.622598 -2.67637,-5.071202 -4.0957,-7.212891 -1.41905,-2.141301 -2.88237,-3.975239 -4.63282,-5.404296 -1.74774,-1.427005 -3.89779,-2.454166 -6.25781,-2.453125 -2.35375,0.001 -4.504967,1.02217 -6.255858,2.453125 -1.747336,1.42793 -3.213112,3.261024 -4.632812,5.404296 -1.418618,2.141463 -2.765454,4.589246 -4.095703,7.212891 -1.329817,2.62258 -2.637257,5.411126 -3.929688,8.169922 -1.292242,2.758192 -2.569509,5.484974 -3.824218,7.95898 -1.254533,2.47402 -2.492954,4.70069 -3.658204,6.45899 -1.165517,1.75884 -2.285257,3.05182 -3.11914,3.73242 -0.835506,0.68197 -1.270659,0.75571 -1.496094,0.75586 -0.230726,-1.7e-4 -0.663741,-0.0743 -1.498047,-0.75586 -0.835817,-0.68279 -1.95629,-1.97293 -3.121094,-3.73047 v -0.002 c -1.165766,-1.76012 -2.404131,-3.98588 -3.658203,-6.45899 C 61.844712,98.546666 60.567567,95.82055 59.275391,93.0625 57.983016,90.303825 56.67567,87.515062 55.345703,84.892578 54.01571,82.269933 52.669166,79.821307 51.25,77.679687 49.831004,75.538313 48.367414,73.704397 46.617187,72.275391 44.86873,70.847695 42.71937,69.821225 40.359375,69.822266 Z"
       id="wave-3-4" /><path
       style="baseline-shift:baseline;display:inline;overflow:visible;vector-effect:none;fill:#0033a0;stroke-linecap:round;enable-background:accumulate;stop-color:#000000;stop-opacity:1;opacity:1;filter:url(#filter9)"
       d="m 40.359375,69.822266 c -2.353753,0.001 -4.507191,1.022385 -6.257813,2.453125 -1.747139,1.427908 -3.211494,3.261534 -4.630859,5.404296 -1.418626,2.141469 -2.767339,4.589317 -4.097656,7.212891 -1.329671,2.622503 -2.635238,5.411189 -3.927735,8.169922 -1.292085,2.758062 -2.569534,5.484837 -3.824218,7.95898 -1.254499,2.47395 -2.492945,4.70053 -3.658203,6.45899 -1.165462,1.75876 -2.2852,3.05172 -3.119141,3.73242 -0.835741,0.68212 -1.2729718,0.75569 -1.5019531,0.75586 a 3.7625,3.7625 0 0 0 -3.7597657,3.76563 3.7625,3.7625 0 0 0 3.7656251,3.75976 c 2.3555867,-0.002 4.5049577,-1.02566 6.2539067,-2.45312 1.750543,-1.42888 3.215733,-3.26093 4.634765,-5.40235 1.419225,-2.14172 2.765716,-4.59203 4.095703,-7.21484 1.329802,-2.62227 2.635332,-5.411186 3.927735,-8.169924 1.292193,-2.758086 2.57135,-5.484107 3.826171,-7.958984 1.254365,-2.473786 2.492142,-4.698773 3.658204,-6.458985 1.164834,-1.758507 2.282054,-3.048406 3.11914,-3.732421 h 0.002 c 0.833873,-0.681503 1.265147,-0.755758 1.496094,-0.75586 0.224485,-9.9e-5 0.660071,0.07321 1.496094,0.75586 0.834254,0.681143 1.95561,1.973616 3.121094,3.732421 1.165314,1.758541 2.401762,3.98523 3.65625,6.458985 1.254733,2.474136 2.534046,5.20084 3.826171,7.958984 1.292505,2.75875 2.597932,5.547384 3.927735,8.169924 1.330121,2.62308 2.677024,5.07111 4.095703,7.21289 v 0.002 c 1.419289,2.14182 2.884207,3.97389 4.632812,5.40235 1.750195,1.42985 3.902106,2.45139 6.25586,2.45312 h 0.002 c 2.359269,0 4.507728,-1.02623 6.255859,-2.45312 1.750797,-1.42898 3.215783,-3.26101 4.634766,-5.40235 1.41945,-2.14188 2.765756,-4.5921 4.095703,-7.21484 1.329971,-2.62241 2.635297,-5.411316 3.927734,-8.169924 1.29207,-2.758024 2.571289,-5.484184 3.826172,-7.958984 1.254231,-2.473715 2.492142,-4.698767 3.658203,-6.458985 1.16478,-1.758427 2.283953,-3.048304 3.121093,-3.732421 0.83361,-0.681287 1.2671,-0.755758 1.49805,-0.75586 0.22468,-9.9e-5 0.65721,0.07252 1.49414,0.75586 0.83427,0.681092 1.95548,1.973543 3.12109,3.732421 1.16537,1.758472 2.40165,3.987137 3.65625,6.460938 1.25452,2.47382 2.53422,5.199443 3.82617,7.957031 1.29254,2.758818 2.59796,5.547444 3.92774,8.169924 1.33023,2.62309 2.67869,5.07196 4.0957,7.21289 v 0.002 c 1.41941,2.14184 2.88432,3.97396 4.63281,5.40235 1.75022,1.42976 3.90209,2.45139 6.25586,2.45312 a 3.7625,3.7625 0 0 0 3.76368,-3.75976 3.7625,3.7625 0 0 0 -3.75782,-3.76563 c -0.23096,-1.7e-4 -0.66552,-0.0742 -1.5,-0.75586 -0.8359,-0.68287 -1.95622,-1.97296 -3.12109,-3.73047 v -0.002 c -1.16542,-1.76096 -2.40209,-3.98589 -3.65625,-6.45899 -1.25494,-2.474876 -2.53403,-5.200998 -3.82617,-7.95898 -1.29247,-2.758682 -2.59977,-5.547515 -3.92969,-8.169922 -1.33006,-2.622598 -2.67637,-5.071202 -4.0957,-7.212891 -1.41905,-2.141301 -2.88237,-3.975239 -4.63282,-5.404296 -1.74774,-1.427005 -3.89779,-2.454166 -6.25781,-2.453125 -2.35375,0.001 -4.504967,1.02217 -6.255858,2.453125 -1.747336,1.42793 -3.213112,3.261024 -4.632812,5.404296 -1.418618,2.141463 -2.765454,4.589246 -4.095703,7.212891 -1.329817,2.62258 -2.637257,5.411126 -3.929688,8.169922 -1.292242,2.758192 -2.569509,5.484974 -3.824218,7.95898 -1.254533,2.47402 -2.492954,4.70069 -3.658204,6.45899 -1.165517,1.75884 -2.285257,3.05182 -3.11914,3.73242 -0.835506,0.68197 -1.270659,0.75571 -1.496094,0.75586 -0.230726,-1.7e-4 -0.663741,-0.0743 -1.498047,-0.75586 -0.835817,-0.68279 -1.95629,-1.97293 -3.121094,-3.73047 v -0.002 c -1.165766,-1.76012 -2.404131,-3.98588 -3.658203,-6.45899 C 61.844712,98.546666 60.567567,95.82055 59.275391,93.0625 57.983016,90.303825 56.67567,87.515062 55.345703,84.892578 54.01571,82.269933 52.669166,79.821307 51.25,77.679687 49.831004,75.538313 48.367414,73.704397 46.617187,72.275391 44.86873,70.847695 42.71937,69.821225 40.359375,69.822266 Z"
       id="wave-3-4-7" /></g></svg>
