<?xml version="1.0" encoding="UTF-8" standalone="no"?>
<!-- Created with Inkscape (http://www.inkscape.org/) -->

<svg
   width="595"
   height="595"
   viewBox="0 0 157.42708 157.42708"
   version="1.1"
   id="svg1"
   xml:space="preserve"
   xmlns="http://www.w3.org/2000/svg"
   xmlns:svg="http://www.w3.org/2000/svg"><defs
     id="defs1"><clipPath
       id="p.1"><path
         d="M 0,0 H 1688 V 712 H 0 Z"
         clip-rule="evenodd"
         id="path11" /></clipPath></defs><g
     id="layer1"
     style="opacity:1"><path
       fill="#ffffff"
       d="m 1.1556137e-7,33.801655 v 0 C 1.1556137e-7,26.823543 5.684777,21.166666 12.697311,21.166666 H 144.72976 c 3.36754,0 6.59716,1.331181 8.97837,3.700702 2.38119,2.369523 3.71895,5.583281 3.71895,8.934289 v 89.823773 c 0,6.97812 -5.68479,12.63499 -12.69732,12.63499 H 12.697311 C 5.684777,136.26042 1.1556137e-7,130.60355 1.1556137e-7,123.62543 Z"
       fill-rule="evenodd"
       id="path3"
       style="stroke:none;stroke-width:0.276678;stroke-linecap:square;stroke-miterlimit:10" /><g
       id="g3"
       transform="matrix(1.0231135,0,0,1.0098356,-168.6213,-1.4554598)"><path
         fill="#0b8043"
         d="m 235.92862,72.722811 v 0 c 0,-21.407188 15.92,-38.761136 35.55833,-38.761136 v 0 c 9.43066,0 18.47506,4.083752 25.14354,11.352871 6.66848,7.269122 10.41479,17.128172 10.41479,27.408265 v 0 c 0,21.40718 -15.92,38.761129 -35.55833,38.761129 v 0 c -19.63833,0 -35.55833,-17.353949 -35.55833,-38.761129 z"
         fill-rule="evenodd"
         id="path4"
         style="stroke:none;stroke-width:0.266854;stroke-linecap:square;stroke-miterlimit:10" /><path
         fill="#ffffff"
         d="m 251.44497,72.838014 v 0 c 0,-12.661437 8.9731,-22.925559 20.04197,-22.925559 v 0 c 5.31546,0 10.4132,2.415365 14.17181,6.714744 3.75859,4.299372 5.87016,10.130576 5.87016,16.210815 v 0 c 0,12.661428 -8.97311,22.925549 -20.04197,22.925549 v 0 c -11.06887,0 -20.04197,-10.264121 -20.04197,-22.925549 z"
         fill-rule="evenodd"
         id="path5"
         style="stroke:none;stroke-width:0.263147;stroke-linecap:square;stroke-miterlimit:10" /></g><g
       id="g18"
       transform="translate(1.2792137e-7,2.6458336)"><path
         fill="#0b8043"
         d="m 11.906249,30.427082 h 15.875 v 78.003188 h -15.875 z"
         fill-rule="evenodd"
         id="path6"
         style="stroke:none;stroke-width:0.273185;stroke-linecap:square;stroke-miterlimit:10" /><path
         fill="#0b8043"
         d="M 11.906249,62.17708 H 59.531247 V 78.052079 H 11.906249 Z"
         fill-rule="evenodd"
         id="path7"
         style="stroke:none;stroke-width:0.275577;stroke-linecap:square;stroke-miterlimit:10" /><path
         fill="#0b8043"
         d="M 11.906251,92.604162 H 59.531247 V 108.47916 H 11.906251 Z"
         fill-rule="evenodd"
         id="path8"
         style="stroke:none;stroke-width:0.275577;stroke-linecap:square;stroke-miterlimit:10" /><path
         fill="#0b8043"
         d="m 11.906249,30.427082 h 47.625 v 15.874999 h -47.625 z"
         fill-rule="evenodd"
         id="path9"
         style="stroke:none;stroke-width:0.275576;stroke-linecap:square;stroke-miterlimit:10" /></g><g
       id="g20"
       transform="matrix(1.0050868,0,0,1.0017275,-0.04205734,2.5391106)"><path
         style="fill:#000000;fill-opacity:0;stroke:#0b8043;stroke-width:15.8202;stroke-linecap:round;stroke-dasharray:none;stroke-opacity:1"
         d="m 114.19752,85.206624 c 0.25809,0.602228 0.5162,1.20569 0.77431,1.810395 0.25811,0.605943 0.51619,1.211884 0.77429,1.817827 0.25811,0.604705 0.51622,1.209406 0.77412,1.812872 0.2581,0.603465 0.51618,1.20445 0.77429,1.802958 0.25812,0.598507 0.51621,1.193296 0.7743,1.783131 0.2581,0.589834 0.51622,1.175954 0.77432,1.75587 0.25809,0.579922 0.51619,1.153648 0.77428,1.719938 0.25789,0.566289 0.51602,1.125144 0.77413,1.676566 0.2581,0.55018 0.51619,1.091659 0.77429,1.624519 0.25811,0.53282 0.51621,1.05451 0.77431,1.56627 0.25809,0.51178 0.51617,1.01238 0.7743,1.5006 0.2581,0.48822 0.516,0.9653 0.77409,1.42752 0.25811,0.46342 0.5162,0.91324 0.77431,1.34819 0.2581,0.43615 0.5162,0.8575 0.7743,1.26391 0.25811,0.4052 0.51623,0.79679 0.7743,1.17101 0.25812,0.37546 0.5162,0.73354 0.77411,1.07555 0.25811,0.3408 0.51622,0.66544 0.7743,0.97275 0.25811,0.3073 0.5162,0.59602 0.77429,0.8674 0.25812,0.27138 0.5162,0.52414 0.77433,0.7571 0.25809,0.23421 0.5162,0.44861 0.77431,0.64436 0.25789,0.19457 0.51599,0.37054 0.77409,0.52666 0.25809,0.15612 0.5162,0.29242 0.77431,0.40894 0.25808,0.11645 0.5162,0.21187 0.77429,0.28744 0.25811,0.0756 0.51621,0.13136 0.77431,0.16605 0.25812,0.0348 0.516,0.0483 0.7741,0.0423 0.25811,-0.006 0.5162,-0.0335 0.77431,-0.0804 0.25811,-0.0469 0.5162,-0.11524 0.77431,-0.20324 0.2581,-0.0879 0.51621,-0.19579 0.77429,-0.32463 0.25808,-0.12764 0.5162,-0.27635 0.77411,-0.44485 0.25812,-0.16728 0.51622,-0.35563 0.77431,-0.56259 0.25809,-0.20693 0.5162,-0.43371 0.77431,-0.67905"
         title="-cos(x)"
         id="path22" /><path
         style="fill:#000000;fill-opacity:0;stroke:#0033a0;stroke-width:7.88071;stroke-linecap:round;stroke-dasharray:none;stroke-opacity:1"
         d="m 8.8353745,115.05601 c 1.3347475,-0.001 2.6694955,-0.62483 4.0042015,-1.82057 1.334812,-1.19676 2.669518,-2.96643 4.004225,-5.16556 1.334809,-2.20016 2.669514,-4.82873 4.004221,-7.67447 1.33481,-2.845847 2.669517,-5.907216 4.004224,-8.93836 1.334808,-3.031042 2.669515,-6.028907 4.004222,-8.753944 1.334809,-2.725037 2.669516,-5.17338 4.004222,-7.150655 1.334809,-1.977376 2.669516,-3.479315 4.004222,-4.388473 1.334809,-0.909058 2.669517,-1.22117 4.004223,-0.914756 1.334809,0.30641 2.669515,1.234702 4.004222,2.707026 1.334811,1.47232 2.669517,3.490504 4.004223,5.890101 1.334809,2.399595 2.669516,5.180605 4.004224,8.118532 1.334809,2.937825 2.669515,6.030943 4.004222,9.030948 1.334809,3.000104 2.669515,5.904051 4.004222,8.479711 1.33481,2.57567 2.669516,4.81958 4.004222,6.55467 1.33481,1.73405 2.669517,2.95422 4.004224,3.56583 1.334809,0.6116 2.669515,0.60956 4.004221,0 1.33481,-0.61059 2.669517,-1.83279 4.004223,-3.56583 1.334809,-1.73407 2.669516,-3.979 4.004222,-6.55467 1.33481,-2.57566 2.669516,-5.47981 4.004224,-8.479711 1.334808,-2.999801 2.669515,-6.092818 4.004222,-9.030948 1.334811,-2.938234 2.669517,-5.718224 4.004224,-8.118532 1.334808,-2.40031 2.669515,-4.416763 4.004222,-5.890101 1.334809,-1.473446 2.669516,-2.399397 4.004218,-2.707026 1.33481,-0.307737 2.66941,0.0071 4.00392,0.914756 1.33554,0.90804 2.67005,2.412013 4.00453,4.388473 1.33451,1.976358 2.66902,4.426124 4.00453,7.150655 1.33451,2.724529 2.66901,5.722902 4.00353,8.753944 1.33551,3.031044 2.67001,6.092106 4.00452,8.93836 1.33449,2.84675 2.67004,5.47431 4.00453,7.67447 1.3345,2.20014 2.66899,3.9678 4.00452,5.16556 1.33451,1.19675 2.66901,1.81956 4.00352,1.82057"
         title="-cos(x)"
         id="path21" /></g><path
       style="font-weight:bold;font-size:7.88964px;font-family:'Gill Sans MT';-inkscape-font-specification:'Gill Sans MT, Normal';font-variation-settings:'wght' 900;fill:#0b8043;stroke-width:0.881333;stroke-linecap:round"
       d="m 145.25381,126.66113 v 0.9862 h -1.94929 v 4.39555 h -1.34063 v -4.39555 h -1.94929 v -0.9862 z m 3.70983,1.99552 1.72971,-1.99552 h 1.16726 v 5.38175 h -1.34062 v -3.35926 l -1.45234,1.68733 h -0.20417 l -1.45234,-1.68733 v 3.35926 h -1.34063 v -5.38175 h 1.16727 z"
       id="text1"
       aria-label="TM" /></g></svg>
