<?xml version="1.0" encoding="UTF-8" standalone="no"?>
<!-- Created with Inkscape (http://www.inkscape.org/) -->

<svg
   width="600"
   height="600"
   viewBox="0 0 158.75 158.75"
   version="1.1"
   id="svg1"
   xml:space="preserve"
   sodipodi:docname="logo.svg"
   inkscape:version="1.3.2 (091e20e, 2023-11-25, custom)"
   xmlns:inkscape="http://www.inkscape.org/namespaces/inkscape"
   xmlns:sodipodi="http://sodipodi.sourceforge.net/DTD/sodipodi-0.dtd"
   xmlns="http://www.w3.org/2000/svg"
   xmlns:svg="http://www.w3.org/2000/svg"><sodipodi:namedview
     id="namedview1"
     pagecolor="#ffffff"
     bordercolor="#000000"
     borderopacity="0.25"
     inkscape:showpageshadow="2"
     inkscape:pageopacity="0.0"
     inkscape:pagecheckerboard="0"
     inkscape:deskcolor="#d1d1d1"
     inkscape:zoom="3.0316667"
     inkscape:cx="300"
     inkscape:cy="300"
     inkscape:window-width="3840"
     inkscape:window-height="2054"
     inkscape:window-x="3445"
     inkscape:window-y="-11"
     inkscape:window-maximized="1"
     inkscape:current-layer="svg1" /><defs
     id="defs1"><clipPath
       id="p.1"><path
         d="M 0,0 H 1688 V 712 H 0 Z"
         clip-rule="evenodd"
         id="path11" /></clipPath></defs><path
     fill="#ffffff"
     d="m 1.1556137e-7,37.560487 v 0 C 1.1556137e-7,31.063622 5.7325481,25.796874 12.804011,25.796874 H 145.94597 c 3.39585,0 6.6526,1.239376 9.05383,3.445482 2.40119,2.206108 3.7502,5.198229 3.7502,8.318132 v 83.629032 c 0,6.49688 -5.73256,11.76361 -12.80403,11.76361 H 12.804011 C 5.7325481,132.95313 1.1556137e-7,127.6864 1.1556137e-7,121.18952 Z"
     fill-rule="evenodd"
     id="background"
     style="stroke:none;stroke-width:0.268087;stroke-linecap:square;stroke-miterlimit:10" /><path
     d="m 11.897731,110.22876 c 0,0 0,-72.571098 0,-72.571098 0,0 47.585905,0 47.585905,0 0,0 0,13.892182 0,13.892182 0,0 -31.205572,0 -31.205572,0 0,0 0,14.928911 0,14.928911 0,0 28.510074,0 28.510074,0 0,0 0,13.892182 0,13.892182 0,0 -28.510074,0 -28.510074,0 0,0 0,15.861968 0,15.861968 0,0 32.345975,0 32.345975,0 0,0 0,13.995855 0,13.995855 z M 146.59382,73.943211 c 0,22.082348 -16.06932,37.736969 -38.7737,37.736969 -22.704389,0 -38.670031,-15.654621 -38.670031,-37.736969 0,-22.082348 15.965642,-37.736971 38.670031,-37.736971 22.70438,0 38.7737,15.654623 38.7737,37.736971 z m -60.648705,0 c 0,13.062798 9.019551,22.082348 21.875005,22.082348 12.95912,0 21.875,-9.01955 21.875,-22.082348 0,-13.062798 -8.91588,-22.082348 -21.875,-22.082348 -12.855454,0 -21.875005,9.01955 -21.875005,22.082348 z m 22.289695,15.447276 c -1.65877,-3.732227 -0.31102,-6.94609 2.6955,-8.397512 3.00651,-1.555095 6.84241,-0.829384 8.70853,2.695498 1.34775,2.695498 2.59182,5.494668 3.93957,8.293839 1.24408,2.695498 2.59183,5.494669 3.8359,7.879148 1.14041,2.38448 2.38448,4.56161 3.42121,6.22038 0,0 0,0 0,0 1.24408,1.76244 3.11019,3.31754 3.11019,3.31754 1.24408,0 3.93958,0 5.391,0 3.52488,0 6.42772,2.90284 6.42772,6.42772 0,3.52488 -2.90284,6.32405 -6.42772,6.32405 -1.45142,0 -4.66529,0 -6.01304,0 -2.17713,0 -4.87263,-1.1404 -4.87263,-1.1404 -3.52488,-1.45142 -6.42772,-5.18365 -8.19016,-7.87915 0,0 0,0 0,0 0,0 0,0 0,0 -1.5551,-2.2808 -2.90285,-4.76895 -4.2506,-7.46445 0,0 0,0 0,0 -1.34775,-2.6955 -2.69549,-5.49467 -4.04324,-8.293842 -1.24408,-2.799171 -2.48815,-5.390996 -3.73223,-7.982821 z"
     id="text2-0"
     style="font-size:103.673px;font-family:Garet-Q;-inkscape-font-specification:Garet-Q;letter-spacing:-1.32292px;fill:#0b8043;stroke-width:1.29589"
     aria-label="EQ" /><path
     style="font-weight:bold;font-size:7.83788px;font-family:Garet;-inkscape-font-specification:'Garet Bold';letter-spacing:0px;fill:#0b8043;stroke-width:0.0979719"
     d="m 144.52756,105.9547 h 1.25406 v -4.31868 h 1.73217 v -1.16784 h -4.7184 v 1.16784 h 1.73217 z m 3.89542,0 h 1.23839 v -3.29975 l 1.33244,1.94379 h 0.86216 l 1.33244,-1.94379 v 3.29975 h 1.23839 v -5.48652 h -1.05028 l -1.95163,2.84515 -1.95163,-2.84515 h -1.05028 z"
     id="text2-0-6"
     aria-label="TM" /><path
     style="fill:none;fill-opacity:0.417219;stroke:#0033a0;stroke-width:7.525;stroke-linecap:round;stroke-dasharray:none;stroke-opacity:0.99117"
     d="m 9.3458793,115.73194 c 1.2922837,-9.5e-4 2.5845277,-0.54971 3.8768727,-1.6045 1.292242,-1.05479 2.584586,-2.6175 3.876833,-4.56759 1.292242,-1.95009 2.584588,-4.28847 3.876831,-6.83685 1.292243,-2.54821 2.584589,-5.30576 3.876833,-8.064167 1.292345,-2.758407 2.584588,-5.51558 3.876834,-8.064263 1.292341,-2.548682 2.584587,-4.885649 3.876931,-6.836489 1.292242,-1.950842 2.584487,-3.511953 3.876832,-4.567977 1.292245,-1.056121 2.584488,-1.603549 3.876833,-1.604118 1.292243,-5.7e-4 2.58459,0.548945 3.876832,1.604118 1.292243,1.055075 2.584588,2.617894 3.876833,4.567977 1.292244,1.95008 2.584588,4.28828 3.876832,6.836489 1.292343,2.548303 2.584589,5.305856 3.876833,8.064263 1.292342,2.758407 2.584587,5.515487 3.87693,8.064167 1.292247,2.54838 2.584489,4.88581 3.876833,6.83685 1.292246,1.95009 2.58449,3.51186 3.876834,4.56759 1.292244,1.05573 2.584589,1.60355 3.876831,1.6045 1.292243,0 2.584589,-0.54971 3.876834,-1.6045 1.292344,-1.05479 2.584587,-2.6175 3.876832,-4.56759 1.292346,-1.95009 2.584589,-4.28847 3.876832,-6.83685 1.292343,-2.54821 2.584589,-5.30576 3.876932,-8.064167 1.292246,-2.758407 2.584488,-5.51558 3.876833,-8.064263 1.292246,-2.548682 2.58449,-4.885649 3.876833,-6.836489 1.292244,-1.950842 2.584588,-3.511953 3.876831,-4.567977 1.292246,-1.056121 2.584856,-1.603549 3.877206,-1.604118 1.29235,-5.7e-4 2.58369,0.548945 3.87603,1.604118 1.29236,1.055075 2.5847,2.617894 3.87703,4.567977 1.29235,1.95008 2.58472,4.28828 3.87705,6.836489 1.29234,2.548303 2.58468,5.305856 3.87702,8.064263 1.29234,2.758407 2.58468,5.515487 3.87704,8.064167 1.29234,2.54838 2.5847,4.88581 3.87603,6.83685 1.29233,1.95009 2.5847,3.51186 3.87703,4.56759 1.29235,1.05573 2.58468,1.60355 3.87705,1.6045"
     title="-cos(x)"
     id="wave" /></svg>
